<svg width="16" height="16" viewBox="0 0 16 16" fill="none" xmlns="http://www.w3.org/2000/svg">
<path d="M14.6673 3.85849L11.6007 1.28516L10.7407 2.30516L13.8073 4.87849L14.6673 3.85849ZM5.25398 2.30516L4.40065 1.28516L1.33398 3.85182L2.19398 4.87182L5.25398 2.30516ZM8.33398 5.37849H7.33398V9.37849L10.5007 11.2785L11.0007 10.4585L8.33398 8.87849V5.37849ZM8.00065 2.71182C4.68732 2.71182 2.00065 5.39849 2.00065 8.71182C2.00065 12.0252 4.68065 14.7118 8.00065 14.7118C11.314 14.7118 14.0007 12.0252 14.0007 8.71182C14.0007 5.39849 11.314 2.71182 8.00065 2.71182ZM8.00065 13.3785C5.42065 13.3785 3.33398 11.2918 3.33398 8.71182C3.33398 6.13182 5.42065 4.04516 8.00065 4.04516C10.5807 4.04516 12.6673 6.13182 12.6673 8.71182C12.6673 11.2918 10.5807 13.3785 8.00065 13.3785Z" fill="black"/>
</svg>
