<svg xmlns="http://www.w3.org/2000/svg" xmlns:xlink="http://www.w3.org/1999/xlink" width="32" height="33"><defs><path id="a" d="M8.72 6.875c.08 1.224.28 2.42.6 3.561l-1.6 1.65a20.927 20.927 0 01-1.013-5.211H8.72zm13.147 16.527c1.133.33 2.293.537 3.466.62v2.048a20.024 20.024 0 01-5.066-1.031l1.6-1.637zM10 4.125H5.333C4.6 4.125 4 4.744 4 5.5c0 12.911 10.147 23.375 22.667 23.375.733 0 1.333-.619 1.333-1.375v-4.799c0-.756-.6-1.375-1.333-1.375-1.654 0-3.267-.275-4.76-.784a1.091 1.091 0 00-.414-.068c-.346 0-.68.137-.946.398l-2.934 3.026a20.525 20.525 0 01-8.786-9.062l2.933-3.025a1.41 1.41 0 00.333-1.402c-.493-1.54-.76-3.19-.76-4.909 0-.756-.6-1.375-1.333-1.375z"/><path id="c" d="M0 0h32v33H0z"/></defs><g fill="none" fill-rule="evenodd"><mask id="b" fill="#fff"><use xlink:href="#a"/></mask><g mask="url(#b)"><mask id="d" fill="#fff"><use xlink:href="#c"/></mask><use fill="#6202EE" fill-opacity="0" style="mix-blend-mode:multiply" xlink:href="#c"/><g style="mix-blend-mode:multiply" fill="#000" mask="url(#d)"><path d="M0 0h32v33H0z"/></g></g></g></svg>