<?xml version="1.0" encoding="UTF-8"?>
<svg xmlns="http://www.w3.org/2000/svg" xmlns:xlink="http://www.w3.org/1999/xlink" width="98pt" height="16pt"
     viewBox="0 0 98 16" version="1.1">
  <g id="surface1">
    <path style=" stroke:none;fill-rule:nonzero;fill:rgb(100%,72.54902%,0%);fill-opacity:1;"
          d="M 8.421875 12.832031 L 3.214844 16.117188 L 4.714844 10.121094 L 0 6.15625 L 6.132812 5.738281 L 8.421875 0 L 10.710938 5.738281 L 16.84375 6.15625 L 12.125 10.121094 L 13.625 16.121094 Z M 8.421875 12.832031 "/>
    <path style=" stroke:none;fill-rule:nonzero;fill:rgb(100%,72.54902%,0%);fill-opacity:1;"
          d="M 28.632812 12.832031 L 23.429688 16.117188 L 24.929688 10.121094 L 20.210938 6.15625 L 26.34375 5.738281 L 28.632812 0 L 30.921875 5.738281 L 37.054688 6.15625 L 32.339844 10.121094 L 33.839844 16.121094 Z M 28.632812 12.832031 "/>
    <path style=" stroke:none;fill-rule:nonzero;fill:rgb(100%,72.54902%,0%);fill-opacity:1;"
          d="M 48.847656 12.832031 L 43.640625 16.117188 L 45.140625 10.121094 L 40.425781 6.15625 L 46.554688 5.738281 L 48.847656 0 L 51.136719 5.738281 L 57.265625 6.15625 L 52.550781 10.121094 L 54.050781 16.121094 Z M 48.847656 12.832031 "/>
    <path style=" stroke:none;fill-rule:nonzero;fill:rgb(100%,72.54902%,0%);fill-opacity:1;"
          d="M 69.058594 12.832031 L 63.851562 16.117188 L 65.351562 10.121094 L 60.636719 6.15625 L 66.765625 5.738281 L 69.058594 0 L 71.347656 5.738281 L 77.480469 6.15625 L 72.761719 10.121094 L 74.261719 16.121094 Z M 69.058594 12.832031 "/>
    <path style=" stroke:none;fill-rule:nonzero;fill:rgb(86.27451%,86.27451%,86.27451%);fill-opacity:1;"
          d="M 89.691406 12.832031 L 84.484375 16.117188 L 85.984375 10.121094 L 81.269531 6.15625 L 87.398438 5.738281 L 89.691406 0 L 91.980469 5.738281 L 98.113281 6.15625 L 93.394531 10.125 L 94.894531 16.121094 Z M 89.691406 12.832031 "/>
    <path style=" stroke:none;fill-rule:nonzero;fill:rgb(100%,72.54902%,0%);fill-opacity:1;"
          d="M 89.691406 12.832031 L 84.484375 16.117188 L 85.984375 10.121094 L 81.269531 6.15625 L 87.398438 5.738281 L 89.691406 0 Z M 89.691406 12.832031 "/>
  </g>
</svg>
