<?xml version="1.0" encoding="utf-8"?>
<!-- Generator: Adobe Illustrator 27.4.0, SVG Export Plug-In . SVG Version: 6.00 Build 0)  -->
<svg version="1.1" id="Layer_1" xmlns="http://www.w3.org/2000/svg" xmlns:xlink="http://www.w3.org/1999/xlink" x="0px" y="0px"
	 viewBox="0 0 150 150" enable-background="new 0 0 150 150" xml:space="preserve">
<g>
	<g>
		<rect fill="none" width="150" height="150"/>
	</g>
	<g>
		<rect x="10" y="10" fill="none" width="130" height="130"/>
	</g>
</g>
<g>
	<path d="M59.6,95.6l42.4-27l-42.4-27V95.6z M51.2,132.2v-12.7H21c-2.5,0-4.8-1-6.7-2.9s-2.9-4.1-2.9-6.7V27.4c0-2.5,1-4.8,2.9-6.7
		c1.9-1.9,4.1-2.9,6.7-2.9h108c2.5,0,4.8,1,6.7,2.9c1.9,1.9,2.9,4.1,2.9,6.7v82.6c0,2.5-1,4.8-2.9,6.7s-4.1,2.9-6.7,2.9H98.8v12.7
		H51.2z M21,109.9h108V27.4H21V109.9z M21,109.9V27.4V109.9z"/>
	<path d="M100.3,133.6H49.7v-12.7H21c-2.9,0-5.5-1.1-7.7-3.3c-2.2-2.2-3.3-4.8-3.3-7.7V27.4c0-2.9,1.1-5.5,3.3-7.7
		c2.2-2.2,4.8-3.3,7.7-3.3h108c2.9,0,5.5,1.1,7.7,3.3c2.2,2.2,3.3,4.8,3.3,7.7v82.6c0,2.9-1.1,5.5-3.3,7.7c-2.2,2.2-4.8,3.3-7.7,3.3
		h-28.7V133.6z M52.6,130.7h44.7V118H129c2.2,0,4-0.8,5.6-2.4c1.6-1.6,2.4-3.5,2.4-5.6V27.4c0-2.2-0.8-4-2.4-5.6
		c-1.6-1.6-3.5-2.4-5.6-2.4H21c-2.2,0-4,0.8-5.6,2.4c-1.6,1.6-2.4,3.5-2.4,5.6v82.6c0,2.2,0.8,4,2.4,5.6c1.6,1.6,3.5,2.4,5.6,2.4
		h31.6V130.7z M130.5,111.4H19.5V25.9h110.9V111.4z M22.5,108.5h105.1V28.8H22.5V108.5z M58.1,98.3V39l46.6,29.7L58.1,98.3z
		 M61.1,44.3V93l38.2-24.3L61.1,44.3z"/>
</g>
<text transform="matrix(1 0 0 1 41.3027 -24.6363)" font-family="'MyriadPro-Regular'" font-size="100.4665px">4</text>
</svg>
